frame= 1088 fps=0.0 q=-0.0 size=N/A time=00:00:36.26 bitrate=N/A speed=72.5x    [blackdetect @ 0x6000033c81c0] black_start:62.433333 black_end:66.7 black_duration:4.266667
frame= 3439 fps=3432 q=-0.0 size=N/A time=00:01:54.63 bitrate=N/A speed= 114x    frame= 4166 fps=2764 q=-0.0 size=N/A time=00:02:18.86 bitrate=N/A speed=92.1x    [blackdetect @ 0x6000033c81c0] black_start:172.866667 black_end:175.333333 black_duration:2.466667
frame= 6252 fps=3109 q=-0.0 size=N/A time=00:03:28.40 bitrate=N/A speed= 104x    frame= 8380 fps=3331 q=-0.0 size=N/A time=00:04:39.33 bitrate=N/A speed= 111x    frame= 8380 fps=2774 q=-0.0 size=N/A time=00:04:39.33 bitrate=N/A speed=92.5x    frame= 9249 fps=2626 q=-0.0 size=N/A time=00:05:08.33 bitrate=N/A speed=87.6x    frame=13002 fps=3231 q=-0.0 size=N/A time=00:07:13.40 bitrate=N/A speed= 108x    frame=16782 fps=3705 q=-0.0 size=N/A time=00:09:19.40 bitrate=N/A speed= 123x    frame=16782 fps=3333 q=-0.0 size=N/A time=00:09:19.40 bitrate=N/A speed= 111x    frame=17248 fps=3114 q=-0.0 size=N/A time=00:09:34.96 bitrate=N/A speed= 104x    [blackdetect @ 0x6000033c81c0] black_start:676.833333 black_end:681.166667 black_duration:4.333333
frame=21534 fps=3563 q=-0.0 size=N/A time=00:11:57.80 bitrate=N/A speed= 119x    frame=25663 fps=3920 q=-0.0 size=N/A time=00:14:15.43 bitrate=N/A speed= 131x    frame=26391 fps=3742 q=-0.0 size=N/A time=00:14:39.70 bitrate=N/A speed= 125x    frame=26391 fps=3494 q=-0.0 size=N/A time=00:14:39.70 bitrate=N/A speed= 116x    frame=29855 fps=3705 q=-0.0 size=N/A time=00:16:35.16 bitrate=N/A speed= 123x    frame=34024 fps=3974 q=-0.0 size=N/A time=00:18:54.16 bitrate=N/A speed= 132x    frame=35992 fps=3969 q=-0.0 size=N/A time=00:19:59.73 bitrate=N/A speed= 132x    frame=35992 fps=3760 q=-0.0 size=N/A time=00:19:59.73 bitrate=N/A speed= 125x    frame=35996 fps=3572 q=-0.0 size=N/A time=00:19:59.86 bitrate=N/A speed= 119x    frame=39865 fps=3767 q=-0.0 size=N/A time=00:22:08.83 bitrate=N/A speed= 126x    [blackdetect @ 0x6000033c81c0] black_start:1452.966667 black_end:1456.6 black_duration:3.633333
frame=43931 fps=3962 q=-0.0 size=N/A time=00:24:24.36 bitrate=N/A speed= 132x    [blackdetect @ 0x6000033c81c0] black_start:1515.166667 black_end:1518.733333 black_duration:3.566667
